# This file uses centimeters as units for non-parametric coordinates.

mtllib TallMiddleWindow.mtl
g default
v -625.906494 -202.536133 263.325684
v -457.711914 -202.536133 263.325684
v -457.711914 201.131836 263.325684
v -625.906494 201.131836 263.325684
v -250.271729 -202.536133 470.766113
v -250.271729 -202.536133 638.960938
v -250.271729 201.131836 638.960938
v -250.271729 201.131836 470.766113
v 287.951416 -202.536133 638.960938
v 287.951416 -202.536133 470.766113
v 287.951416 201.131836 470.766113
v 287.951416 201.131836 638.960938
v 495.391602 -202.536133 263.325684
v 663.586670 -202.536133 263.325684
v 663.586670 201.131836 263.325684
v 495.391602 201.131836 263.325684
v 663.586670 -202.536133 -274.897461
v 495.391602 -202.536133 -274.897461
v 495.391602 201.131836 -274.897461
v 663.586670 201.131836 -274.897461
v 287.951416 -202.536133 -482.337402
v 287.951416 -202.536133 -650.532227
v 287.951416 201.131836 -650.532227
v 287.951416 201.131836 -482.337402
v -457.711914 -202.536133 -274.897461
v -625.906494 -202.536133 -274.897461
v -625.906494 201.131836 -274.897461
v -457.711914 201.131836 -274.897461
v -250.271729 -202.536133 -650.532227
v -250.271729 -202.536133 -482.337402
v -250.271729 201.131836 -482.337402
v -250.271729 201.131836 -650.532227
vt -0.575896 -1.640311
vt 0.312655 -1.640311
vt 0.312655 0.492211
vt -0.575896 0.492211
vt 0.336628 -1.640311
vt 1.225180 -1.640311
vt 1.225180 0.492211
vt 0.336628 0.492211
vt 0.596005 0.507790
vt 1.484556 0.507790
vt 1.484556 2.640312
vt 0.596005 2.640312
vt -1.228969 0.507790
vt -0.340418 0.507790
vt -0.340418 2.640312
vt -1.228969 2.640312
vt -1.489181 -1.640311
vt -0.600632 -1.640311
vt -0.600632 0.492211
vt -1.489181 0.492211
vt 1.249152 -1.640311
vt 2.137703 -1.640311
vt 2.137703 0.492211
vt 1.249152 0.492211
vt 2.397046 2.640312
vt 1.508494 2.640312
vt 1.508494 0.507787
vt 2.397046 0.507787
vt 0.572068 2.640312
vt -0.316481 2.640312
vt -0.316481 0.507787
vt 0.572068 0.507787
vn 0.000000 0.000000 1.000000
vn 0.000000 0.000000 1.000000
vn 0.000000 0.000000 1.000000
vn 0.000000 0.000000 1.000000
vn -1.000000 0.000000 0.000000
vn -1.000000 0.000000 0.000000
vn -1.000000 0.000000 0.000000
vn -1.000000 0.000000 0.000000
vn 1.000000 0.000000 0.000000
vn 1.000000 0.000000 0.000000
vn 1.000000 0.000000 0.000000
vn 1.000000 0.000000 0.000000
vn 0.000000 0.000000 1.000000
vn 0.000000 0.000000 1.000000
vn 0.000000 0.000000 1.000000
vn 0.000000 0.000000 1.000000
vn 0.000000 0.000000 -1.000000
vn 0.000000 0.000000 -1.000000
vn 0.000000 0.000000 -1.000000
vn 0.000000 0.000000 -1.000000
vn 1.000000 0.000000 0.000000
vn 1.000000 0.000000 0.000000
vn 1.000000 0.000000 0.000000
vn 1.000000 0.000000 0.000000
vn 0.000000 0.000000 -1.000000
vn 0.000000 0.000000 -1.000000
vn 0.000000 0.000000 -1.000000
vn 0.000000 0.000000 -1.000000
vn -1.000000 0.000000 0.000000
vn -1.000000 0.000000 0.000000
vn -1.000000 0.000000 0.000000
vn -1.000000 0.000000 0.000000
s off
g TallMiddleWindow
usemtl initialShadingGroup
f 1/17/1 2/18/2 3/19/3 4/20/4
f 5/1/5 6/2/6 7/3/7 8/4/8
f 9/5/9 10/6/10 11/7/11 12/8/12
f 13/21/13 14/22/14 15/23/15 16/24/16
f 17/25/17 18/26/18 19/27/19 20/28/20
f 21/9/21 22/10/22 23/11/23 24/12/24
f 25/29/25 26/30/26 27/31/27 28/32/28
f 29/13/29 30/14/30 31/15/31 32/16/32
