# This file uses centimeters as units for non-parametric coordinates.

mtllib TallBottomWindow.mtl
g default
v 850.469360 -189.807129 -461.780273
v 682.274414 -189.807129 -461.780273
v 682.274414 213.860352 -461.780273
v 850.469360 213.860352 -461.780273
v 474.834717 -189.807129 -669.220215
v 474.834717 -189.807129 -837.415039
v 474.834717 213.860352 -837.415039
v 474.834717 213.860352 -669.220215
v -644.594971 -189.807129 -461.780273
v -812.789795 -189.807129 -461.780273
v -812.789795 213.860352 -461.780273
v -644.594971 213.860352 -461.780273
v -437.154785 -189.807129 -837.415039
v -437.154785 -189.807129 -669.220215
v -437.154785 213.860352 -669.220215
v -437.154785 213.860352 -837.415039
v -812.789795 -189.807129 450.208984
v -644.594971 -189.807129 450.208984
v -644.594971 213.860352 450.208984
v -812.789795 213.860352 450.208984
v -437.154785 -189.807129 657.649414
v -437.154785 -189.807129 825.844238
v -437.154785 213.860352 825.844238
v -437.154785 213.860352 657.649414
v 474.834717 -189.807129 825.844238
v 474.834717 -189.807129 657.649414
v 474.834717 213.860352 657.649414
v 474.834717 213.860352 825.844238
v 682.274414 -189.807129 450.208984
v 850.469360 -189.807129 450.208984
v 850.469360 213.860352 450.208984
v 682.274414 213.860352 450.208984
vt -0.288613 -1.043241
vt 0.352066 -1.043241
vt 0.352066 0.494385
vt -0.288613 0.494385
vt 1.027314 -1.043241
vt 1.667993 -1.043241
vt 1.667993 0.494385
vt 1.027314 0.494385
vt 0.556372 0.505617
vt 1.197050 0.505617
vt 1.197050 2.043243
vt 0.556372 2.043243
vt -0.101568 0.505617
vt 0.539111 0.505617
vt 0.539111 2.043243
vt -0.101568 2.043243
vt -0.306446 0.494383
vt -0.947124 0.494383
vt -0.947124 -1.043243
vt -0.306446 -1.043243
vt 1.010029 0.494383
vt 0.369351 0.494383
vt 0.369351 -1.043243
vt 1.010029 -1.043243
vt 1.214311 0.505617
vt 1.854989 0.505617
vt 1.854989 2.043243
vt 1.214311 2.043243
vt -0.759506 0.505617
vt -0.118828 0.505617
vt -0.118828 2.043243
vt -0.759506 2.043243
vn 0.000000 0.000000 -1.000000
vn 0.000000 0.000000 -1.000000
vn 0.000000 0.000000 -1.000000
vn 0.000000 0.000000 -1.000000
vn 1.000000 0.000000 0.000000
vn 1.000000 0.000000 0.000000
vn 1.000000 0.000000 0.000000
vn 1.000000 0.000000 0.000000
vn 0.000000 0.000000 -1.000000
vn 0.000000 0.000000 -1.000000
vn 0.000000 0.000000 -1.000000
vn 0.000000 0.000000 -1.000000
vn -1.000000 0.000000 0.000000
vn -1.000000 0.000000 0.000000
vn -1.000000 0.000000 0.000000
vn -1.000000 0.000000 0.000000
vn 0.000000 0.000000 1.000000
vn 0.000000 0.000000 1.000000
vn 0.000000 0.000000 1.000000
vn 0.000000 0.000000 1.000000
vn -1.000000 0.000000 0.000000
vn -1.000000 0.000000 0.000000
vn -1.000000 0.000000 0.000000
vn -1.000000 0.000000 0.000000
vn 1.000000 0.000000 0.000000
vn 1.000000 0.000000 0.000000
vn 1.000000 0.000000 0.000000
vn 1.000000 0.000000 0.000000
vn 0.000000 0.000000 1.000000
vn 0.000000 0.000000 1.000000
vn 0.000000 0.000000 1.000000
vn 0.000000 0.000000 1.000000
s off
g TallBottomWindow
usemtl initialShadingGroup
f 1/17/1 2/18/2 3/19/3 4/20/4
f 5/1/5 6/2/6 7/3/7 8/4/8
f 9/21/9 10/22/10 11/23/11 12/24/12
f 13/5/13 14/6/14 15/7/15 16/8/16
f 17/25/17 18/26/18 19/27/19 20/28/20
f 21/9/21 22/10/22 23/11/23 24/12/24
f 25/13/25 26/14/26 27/15/27 28/16/28
f 29/29/29 30/30/30 31/31/31 32/32/32
