# This file uses centimeters as units for non-parametric coordinates.

mtllib TallTopRoof.mtl
g default
v 112.281853 556.484639 835.187635
v -74.601332 556.484639 648.304449
v 112.281853 556.484639 648.304449
v -74.601332 556.484639 461.421691
v 112.281853 556.484639 461.421691
v -74.601332 556.484639 274.538506
v 112.281853 556.484639 274.538506
v -635.250461 556.484639 87.655320
v -448.367276 556.484639 87.655320
v -261.484304 556.484639 87.655320
v -74.601332 556.484639 87.655320
v 112.281853 556.484639 87.655320
v 299.164825 556.484639 87.655320
v 486.047797 556.484639 87.655320
v 672.930768 556.484639 87.655320
v -822.133433 556.484639 -99.227438
v -635.250461 556.484639 -99.227438
v -448.367276 556.484639 -99.227438
v -261.484304 556.484639 -99.227438
v -74.601332 556.484639 -99.227438
v 112.281853 556.484639 -99.227438
v 299.164825 556.484639 -99.227438
v 486.047797 556.484639 -99.227438
v 672.930768 556.484639 -99.227438
v 859.813740 556.484639 -99.227438
v -74.601332 556.484639 -286.110623
v 112.281853 556.484639 -286.110623
v -74.601332 556.484639 -472.993809
v 112.281853 556.484639 -472.993809
v -74.601332 556.484639 -659.876567
v 112.281853 556.484639 -659.876567
v 112.281853 556.484639 -846.760180
v 112.281853 556.484639 835.187635
v -74.601332 556.484639 648.304449
v -635.250461 556.484639 87.655320
v -74.601332 556.484639 87.655320
v 112.281853 556.484639 87.655320
v 672.930768 556.484639 87.655320
v -822.133433 556.484639 -99.227438
v -74.601332 556.484639 -99.227438
v 112.281853 556.484639 -99.227438
v 859.813740 556.484639 -99.227438
v -74.601332 556.484639 -659.876567
v 112.281853 556.484639 -846.760180
v -74.601332 668.614465 648.304449
v 112.281853 668.614465 835.187635
v -74.601332 668.614465 87.655320
v 112.281853 668.614465 87.655320
v -822.133433 668.614465 -99.227438
v -635.250461 668.614465 87.655320
v 672.930768 668.614465 87.655320
v 859.813740 668.614465 -99.227438
v -74.601332 668.614465 -99.227438
v 112.281853 668.614465 -99.227438
v -74.601332 668.614465 -659.876567
v 112.281853 668.614465 -846.760180
v 128.702843 556.484639 874.831558
v 128.702843 668.614465 874.831558
v -170.310168 668.614465 687.948372
v -170.310168 556.484639 687.948372
v -130.666245 556.484639 143.720233
v -130.666245 668.614465 143.720233
v 168.346766 556.484639 143.720233
v 168.346766 668.614465 143.720233
v -674.894170 556.484639 183.364584
v -674.894170 668.614465 183.364584
v -861.777142 668.614465 -115.648428
v -861.777142 556.484639 -115.648428
v 712.574477 556.484639 183.364584
v 712.574477 668.614465 183.364584
v 899.457663 556.484639 -115.648428
v 899.457663 668.614465 -115.648428
v -130.666245 556.484639 -155.292351
v -130.666245 668.614465 -155.292351
v -170.310168 556.484639 -699.520490
v -170.310168 668.614465 -699.520490
v 168.346766 556.484639 -155.292351
v 168.346766 668.614465 -155.292351
v 128.702843 668.614465 -886.403248
v 128.702843 556.484639 -886.403248
vt -0.952700 1.711807
vt -1.133275 1.711807
vt -1.133275 0.835395
vt -0.952700 0.835395
vt -1.133275 0.534430
vt -0.952700 0.534430
vt -1.170713 1.711788
vt -1.351326 1.711788
vt -1.351326 0.534430
vt -1.170713 0.534430
vt -2.042632 1.410842
vt -2.223207 1.410842
vt -2.223207 0.534430
vt -2.042632 0.534430
vt -2.042632 1.711807
vt -2.223207 1.711807
vt -2.356601 2.913599
vt -2.537214 2.913599
vt -2.537214 1.736241
vt -2.356601 1.736241
vt 0.791196 0.534430
vt 0.791196 1.437305
vt 0.610583 1.437305
vt 0.610583 0.534430
vt 0.610583 1.738250
vt 0.791196 1.738250
vt 0.573183 0.534430
vt 0.573183 1.738231
vt 0.392608 1.738231
vt 0.392608 0.534430
vt -0.298698 0.835376
vt -0.298698 1.738250
vt -0.479311 1.738250
vt -0.479311 0.835376
vt -0.479311 0.534430
vt -0.298698 0.534430
vt -0.734706 0.534430
vt -0.734706 1.738250
vt -0.915281 1.738250
vt -0.915281 0.534430
vt 2.032445 0.835376
vt 2.333390 0.534430
vt 2.333390 0.835376
vt 2.333390 1.136359
vt 2.032445 1.136359
vt 2.333390 1.437305
vt 2.032445 1.437305
vt 2.333390 1.738250
vt 2.032445 1.738250
vt 2.333390 2.039196
vt 2.032445 2.039196
vt 2.634355 1.738250
vt 2.634355 2.039196
vt 2.333390 2.340142
vt 2.032445 2.340142
vt 1.731490 1.738250
vt 1.731490 2.039196
vt 2.935301 1.738250
vt 2.935301 2.039196
vt 2.333390 2.641087
vt 2.032445 2.641087
vt 1.430535 1.738250
vt 1.430535 2.039196
vt 3.236247 1.738250
vt 3.236247 2.039196
vt 2.333390 2.942070
vt 2.032445 2.942070
vt 1.129580 1.738250
vt 1.129580 2.039196
vt 3.537211 2.039196
vt 2.333390 3.243016
vt 0.828634 2.039196
vt -0.968594 -2.262339
vt -1.269540 -1.961394
vt -1.423671 -2.025238
vt -0.942151 -2.326183
vt -1.269540 -1.058519
vt -1.359827 -1.148825
vt -0.968594 -1.058519
vt -0.878307 -1.148825
vt -2.172405 -1.058519
vt -2.236239 -1.212631
vt -0.065739 -1.058519
vt -0.001895 -1.212631
vt -2.473351 -0.757573
vt -2.537195 -0.731111
vt 0.235226 -0.757573
vt 0.299070 -0.731111
vt -1.269540 -0.757573
vt -1.359827 -0.667267
vt -0.968594 -0.757573
vt -0.878307 -0.667267
vt -1.269540 0.145301
vt -1.423671 0.209145
vt -0.968594 0.446247
vt -0.942151 0.510091
vt 1.608077 0.145292
vt 1.909023 0.446237
vt 1.935466 0.510081
vt 1.453946 0.209126
vt 1.909023 -0.757573
vt 1.999310 -0.667286
vt 1.608077 -0.757573
vt 1.517789 -0.667286
vt 2.811878 -0.757573
vt 2.875722 -0.603442
vt 0.705212 -0.757573
vt 0.641377 -0.603442
vt 3.112843 -1.058519
vt 3.176687 -1.084963
vt 0.404266 -1.058519
vt 0.340422 -1.084963
vt 1.909023 -1.058519
vt 1.999310 -1.148807
vt 1.608077 -1.058519
vt 1.517789 -1.148807
vt 1.909023 -2.262339
vt 1.935466 -2.326183
vt 1.608077 -1.961375
vt 1.453946 -2.025218
vt -1.388707 1.410842
vt -1.569282 1.410842
vt -1.569282 0.534430
vt -1.388707 0.534430
vt -1.388707 1.711807
vt -1.569282 1.711807
vt -1.606701 1.711807
vt -1.787276 1.711807
vt -1.787276 0.835395
vt -1.606701 0.835395
vt -1.787276 0.534430
vt -1.606701 0.534430
vt -2.005223 0.534430
vt -1.824686 0.534430
vt -1.824686 1.711826
vt -2.005223 1.711826
vt -2.441163 0.534430
vt -2.260626 0.534430
vt -2.260626 1.711826
vt -2.441163 1.711826
vt 0.174661 1.437267
vt 0.174661 0.534430
vt 0.355199 0.534430
vt 0.355199 1.437267
vt 0.355199 1.738212
vt 0.174661 1.738212
vt -0.043285 1.738212
vt -0.043285 0.835376
vt 0.137252 0.835376
vt 0.137252 1.738212
vt 0.137252 0.534430
vt -0.043285 0.534430
vt -0.080704 0.534430
vt -0.080704 1.738250
vt -0.261279 1.738250
vt -0.261279 0.534430
vt -0.516721 0.534430
vt -0.516721 1.738250
vt -0.697296 1.738250
vt -0.697296 0.534430
vn 0.000000 1.000000 0.000000
vn 0.000000 1.000000 0.000000
vn 0.000000 1.000000 0.000000
vn 0.000000 1.000000 0.000000
vn 0.000000 1.000000 0.000000
vn 0.000000 1.000000 0.000000
vn 0.000000 1.000000 0.000000
vn 0.000000 1.000000 0.000000
vn 0.000000 1.000000 0.000000
vn 0.000000 1.000000 0.000000
vn 0.000000 1.000000 0.000000
vn 0.000000 1.000000 0.000000
vn 0.000000 1.000000 0.000000
vn 0.000000 1.000000 0.000000
vn 0.000000 1.000000 0.000000
vn 0.000000 1.000000 0.000000
vn 0.000000 1.000000 0.000000
vn 0.000000 1.000000 0.000000
vn 0.000000 1.000000 0.000000
vn 0.000000 1.000000 0.000000
vn 0.000000 1.000000 0.000000
vn 0.000000 1.000000 0.000000
vn 0.000000 1.000000 0.000000
vn 0.000000 1.000000 0.000000
vn 0.000000 1.000000 0.000000
vn 0.000000 1.000000 0.000000
vn 0.000000 1.000000 0.000000
vn 0.000000 1.000000 0.000000
vn 0.000000 1.000000 0.000000
vn 0.000000 1.000000 0.000000
vn 0.000000 1.000000 0.000000
vn 0.000000 1.000000 0.000000
vn -0.529999 0.000000 0.847998
vn -0.529999 0.000000 0.847998
vn -0.529999 0.000000 0.847998
vn -0.529999 0.000000 0.847998
vn -0.997357 0.000000 -0.072652
vn -0.997357 0.000000 -0.072652
vn -0.997357 0.000000 -0.072652
vn -0.997357 0.000000 -0.072652
vn 0.998533 0.000000 0.054145
vn 0.998533 0.000000 0.054145
vn 0.998533 0.000000 0.054145
vn 0.998533 0.000000 0.054145
vn -0.847999 0.000000 0.529999
vn -0.847999 0.000000 0.529999
vn -0.847999 0.000000 0.529999
vn -0.847999 0.000000 0.529999
vn 0.072653 0.000000 0.997357
vn 0.072653 0.000000 0.997357
vn 0.072653 0.000000 0.997357
vn 0.072653 0.000000 0.997357
vn -0.072653 0.000000 0.997357
vn -0.072653 0.000000 0.997357
vn -0.072653 0.000000 0.997357
vn -0.072653 0.000000 0.997357
vn 0.847998 0.000000 0.529999
vn 0.847998 0.000000 0.529999
vn 0.847998 0.000000 0.529999
vn 0.847998 0.000000 0.529999
vn -0.054145 0.000000 -0.998533
vn -0.054145 0.000000 -0.998533
vn -0.054145 0.000000 -0.998533
vn -0.054145 0.000000 -0.998533
vn -0.997357 0.000000 0.072652
vn -0.997357 0.000000 0.072652
vn -0.997357 0.000000 0.072652
vn -0.997357 0.000000 0.072652
vn 0.054145 0.000000 -0.998533
vn 0.054145 0.000000 -0.998533
vn 0.054145 0.000000 -0.998533
vn 0.054145 0.000000 -0.998533
vn -0.529998 0.000000 -0.847999
vn -0.529998 0.000000 -0.847999
vn -0.529998 0.000000 -0.847999
vn -0.529998 0.000000 -0.847999
vn 0.998533 0.000000 -0.054145
vn 0.998533 0.000000 -0.054145
vn 0.998533 0.000000 -0.054145
vn 0.998533 0.000000 -0.054145
vn 0.707107 0.000000 -0.707107
vn 0.707107 0.000000 -0.707107
vn 0.707107 0.000000 -0.707107
vn 0.707107 0.000000 -0.707107
vn 1.000000 0.000000 0.000000
vn 1.000000 0.000000 0.000000
vn 1.000000 0.000000 0.000000
vn 1.000000 0.000000 0.000000
vn -1.000000 0.000000 0.000000
vn -1.000000 0.000000 0.000000
vn -1.000000 0.000000 0.000000
vn -1.000000 0.000000 0.000000
vn 0.707106 0.000000 -0.707107
vn 0.707106 0.000000 -0.707107
vn 0.707106 0.000000 -0.707107
vn 0.707106 0.000000 -0.707107
vn 0.000000 0.000000 -1.000000
vn 0.000000 0.000000 -1.000000
vn 0.000000 0.000000 -1.000000
vn 0.000000 0.000000 -1.000000
vn 0.000000 0.000000 -1.000000
vn 0.000000 0.000000 -1.000000
vn 0.000000 0.000000 -1.000000
vn 0.000000 0.000000 -1.000000
vn -0.707106 0.000000 -0.707107
vn -0.707106 0.000000 -0.707107
vn -0.707106 0.000000 -0.707107
vn -0.707106 0.000000 -0.707107
vn 0.000000 0.000000 1.000000
vn 0.000000 0.000000 1.000000
vn 0.000000 0.000000 1.000000
vn 0.000000 0.000000 1.000000
vn 1.000000 0.000000 0.000000
vn 1.000000 0.000000 0.000000
vn 1.000000 0.000000 0.000000
vn 1.000000 0.000000 0.000000
vn 0.000000 0.000000 1.000000
vn 0.000000 0.000000 1.000000
vn 0.000000 0.000000 1.000000
vn 0.000000 0.000000 1.000000
vn 0.707108 0.000000 0.707106
vn 0.707108 0.000000 0.707106
vn 0.707108 0.000000 0.707106
vn 0.707108 0.000000 0.707106
vn -1.000000 0.000000 0.000000
vn -1.000000 0.000000 0.000000
vn -1.000000 0.000000 0.000000
vn -1.000000 0.000000 0.000000
vn 0.000000 1.000000 -0.000000
vn 0.000000 1.000000 -0.000000
vn 0.000000 1.000000 -0.000000
vn 0.000000 1.000000 -0.000000
vn 0.000000 -1.000000 -0.000000
vn 0.000000 -1.000000 0.000000
vn 0.000000 -1.000000 0.000000
vn 0.000000 -1.000000 -0.000000
vn 0.000000 -1.000000 0.000000
vn 0.000000 -1.000000 0.000000
vn 0.000000 1.000000 0.000000
vn 0.000000 1.000000 0.000000
vn 0.000000 -1.000000 0.000000
vn 0.000000 -1.000000 0.000000
vn 0.000000 1.000000 -0.000000
vn 0.000000 1.000000 -0.000000
vn 0.000000 1.000000 -0.000000
vn 0.000000 1.000000 0.000000
vn 0.000000 1.000000 0.000000
vn 0.000000 1.000000 -0.000000
vn 0.000000 -1.000000 -0.000000
vn 0.000000 -1.000000 0.000000
vn 0.000000 -1.000000 0.000000
vn 0.000000 -1.000000 -0.000000
vn 0.000000 -1.000000 0.000000
vn 0.000000 -1.000000 0.000000
vn 0.000000 1.000000 -0.000000
vn 0.000000 1.000000 -0.000000
vn 0.000000 1.000000 0.000000
vn 0.000000 1.000000 0.000000
vn 0.000000 -1.000000 -0.000000
vn 0.000000 -1.000000 -0.000000
vn 0.000000 -1.000000 0.000000
vn 0.000000 -1.000000 0.000000
vn 0.000000 1.000000 0.000000
vn 0.000000 1.000000 0.000000
vn 0.000000 -1.000000 -0.000000
vn 0.000000 -1.000000 -0.000000
vn 0.000000 1.000000 -0.000000
vn 0.000000 1.000000 -0.000000
vn 0.000000 -1.000000 -0.000000
vn 0.000000 -1.000000 -0.000000
vn 0.000000 1.000000 0.000000
vn 0.000000 1.000000 0.000000
vn 0.000000 1.000000 0.000000
vn 0.000000 1.000000 0.000000
vn 0.000000 -1.000000 -0.000000
vn 0.000000 -1.000000 -0.000000
s 1
g TallTopRoof KA_BLDG8_grp KA_BLDG8_Architect
usemtl initialShadingGroup
f 2/41/1 1/42/2 3/43/3
f 2/41/1 3/43/3 5/44/4 4/45/5
f 4/45/5 5/44/4 7/46/6 6/47/7
f 6/47/7 7/46/6 12/48/8 11/49/9
f 16/72/10 8/68/11 17/69/12
f 8/68/11 9/62/13 18/63/14 17/69/12
f 9/62/13 10/56/15 19/57/16 18/63/14
f 10/56/15 11/49/9 20/51/17 19/57/16
f 11/49/9 12/48/8 21/50/18 20/51/17
f 12/48/8 13/52/19 22/53/20 21/50/18
f 13/52/19 14/58/21 23/59/22 22/53/20
f 14/58/21 15/64/23 24/65/24 23/59/22
f 15/64/23 25/70/25 24/65/24
f 20/51/17 21/50/18 27/54/26 26/55/27
f 26/55/27 27/54/26 29/60/28 28/61/29
f 28/61/29 29/60/28 31/66/30 30/67/31
f 30/67/31 31/66/30 32/71/32
s off
f 57/5/33 58/6/34 59/4/35 60/3/36
f 62/1/37 61/2/38 60/3/39 59/4/40
f 58/7/41 57/8/42 63/9/43 64/10/44
f 65/122/45 66/121/46 67/125/47 68/126/48
f 66/121/49 65/122/50 61/123/51 62/124/52
f 64/127/53 63/128/54 69/129/55 70/130/56
f 71/131/57 72/132/58 70/130/59 69/129/60
f 74/133/61 73/134/62 68/135/63 67/136/64
f 76/11/65 75/12/66 73/13/67 74/14/68
f 72/137/69 71/138/70 77/139/71 78/140/72
f 75/12/73 76/11/74 79/15/75 80/16/76
f 78/17/77 77/18/78 80/19/79 79/20/80
f 33/25/81 34/23/82 45/22/83 46/26/84
f 47/21/85 45/22/86 34/23/87 36/24/88
f 46/27/89 48/28/90 37/29/91 33/30/92
f 35/144/93 39/145/94 49/146/95 50/141/96
f 50/141/97 47/142/98 36/143/99 35/144/100
f 48/147/101 51/148/102 38/149/103 37/150/104
f 42/151/105 38/149/106 51/148/107 52/152/108
f 53/153/109 49/154/110 39/155/111 40/156/112
f 55/31/113 53/32/114 40/33/115 43/34/116
f 52/157/117 54/158/118 41/159/119 42/160/120
f 43/34/121 44/35/122 56/36/123 55/31/124
f 54/37/125 56/38/126 44/39/127 41/40/128
s 3
f 46/73/129 45/74/130 59/75/131 58/76/132
s 4
f 34/97/133 33/98/134 57/99/135 60/100/136
f 36/103/137 34/97/133 60/100/136 61/104/138
s 3
f 45/74/130 47/77/139 62/78/140 59/75/131
s 4
f 33/98/134 37/101/141 63/102/142 57/99/135
s 3
f 48/79/143 46/73/129 58/76/132 64/80/144
f 50/81/145 49/85/146 67/86/147 66/82/148
s 4
f 39/111/149 35/107/150 65/108/151 68/112/152
f 35/107/150 36/103/137 61/104/138 65/108/151
s 3
f 47/77/139 50/81/145 66/82/148 62/78/140
s 4
f 37/101/141 38/105/153 69/106/154 63/102/142
s 3
f 51/83/155 48/79/143 64/80/144 70/84/156
f 52/87/157 51/83/155 70/84/156 72/88/158
s 4
f 38/105/153 42/109/159 71/110/160 69/106/154
f 40/115/161 39/111/149 68/112/152 73/116/162
s 3
f 49/85/146 53/89/163 74/90/164 67/86/147
s 4
f 43/119/165 40/115/161 73/116/162 75/120/166
s 3
f 53/89/163 55/93/167 76/94/168 74/90/164
s 4
f 42/109/159 41/113/169 77/114/170 71/110/160
s 3
f 54/91/171 52/87/157 72/88/158 78/92/172
f 55/93/167 56/95/173 79/96/174 76/94/168
s 4
f 44/117/175 43/119/165 75/120/166 80/118/176
f 41/113/169 44/117/175 80/118/176 77/114/170
s 3
f 56/95/173 54/91/171 78/92/172 79/96/174
