# This file uses centimeters as units for non-parametric coordinates.

mtllib SquareWindow.mtl
g default
v 2426.186682 -349.496529 2084.751221
v 2426.186682 -349.496529 1793.199951
v 2426.186682 350.228080 1793.199951
v 2426.186682 350.228080 2084.751221
v 2426.186682 -349.496529 1760.804443
v 2426.186682 -349.496529 1469.252686
v 2426.186682 350.228080 1469.252686
v 2426.186682 350.228080 1760.804443
v 2426.186682 -349.496529 1436.859131
v 2426.186682 -349.496529 1145.306396
v 2426.186682 350.228080 1145.306396
v 2426.186682 350.228080 1436.859131
v 2426.186682 -349.496529 1112.911865
v 2426.186682 -349.496529 821.360107
v 2426.186682 350.228080 821.360107
v 2426.186682 350.228080 1112.911865
v 2426.186682 -349.496529 788.965576
v 2426.186682 -349.496529 497.414551
v 2426.186682 350.228080 497.414551
v 2426.186682 350.228080 788.965576
v 2426.186682 -349.496529 465.019531
v 2426.186682 -349.496529 173.467773
v 2426.186682 350.228080 173.467773
v 2426.186682 350.228080 465.019531
v 2426.186682 -349.496529 141.073242
v 2426.186682 -349.496529 -150.478271
v 2426.186682 350.228080 -150.478271
v 2426.186682 350.228080 141.073242
v 2426.186682 -349.496529 -182.872803
v 2426.186682 -349.496529 -474.424805
v 2426.186682 350.228080 -474.424805
v 2426.186682 350.228080 -182.872803
v 2426.186682 -349.496529 -506.819580
v 2426.186682 -349.496529 -798.371338
v 2426.186682 350.228080 -798.371338
v 2426.186682 350.228080 -506.819580
v 2426.186682 -349.496529 -830.765625
v 2426.186682 -349.496529 -1122.317383
v 2426.186682 350.228080 -1122.317383
v 2426.186682 350.228080 -830.765625
v 2426.186682 -349.496529 -1154.711914
v 2426.186682 -349.496529 -1446.263672
v 2426.186682 350.228080 -1446.263672
v 2426.186682 350.228080 -1154.711914
v 2426.186682 -349.496529 -1478.658447
v 2426.186682 -349.496529 -1770.210083
v 2426.186682 350.228080 -1770.210083
v 2426.186682 350.228080 -1478.658447
v 2426.186682 -349.496529 -1802.604980
v 2426.186682 -349.496529 -2094.156250
v 2426.186682 350.228080 -2094.156250
v 2426.186682 350.228080 -1802.604980
v 2105.479650 -349.496529 -2414.863770
v 1813.927893 -349.496529 -2414.863770
v 1813.927893 350.228080 -2414.863770
v 2105.479650 350.228080 -2414.863770
v 1781.533361 -349.496529 -2414.863770
v 1489.981604 -349.496529 -2414.863770
v 1489.981604 350.228080 -2414.863770
v 1781.533361 350.228080 -2414.863770
v 1457.587072 -349.496529 -2414.863770
v 1166.034338 -349.496529 -2414.863770
v 1166.034338 350.228080 -2414.863770
v 1457.587072 350.228080 -2414.863770
v 1133.639807 -349.496529 -2414.863770
v 842.089025 -349.496529 -2414.863770
v 842.089025 350.228080 -2414.863770
v 1133.639807 350.228080 -2414.863770
v 809.694494 -349.496529 -2414.863770
v 518.142736 -349.496529 -2414.863770
v 518.142736 350.228080 -2414.863770
v 809.694494 350.228080 -2414.863770
v 485.748205 -349.496529 -2414.863770
v 194.196447 -349.496529 -2414.863770
v 194.196447 350.228080 -2414.863770
v 485.748205 350.228080 -2414.863770
v 161.800940 -349.496529 -2414.863770
v -129.750818 -349.496529 -2414.863770
v -129.750818 350.228080 -2414.863770
v 161.800940 350.228080 -2414.863770
v -162.145350 -349.496529 -2414.863770
v -453.697107 -349.496529 -2414.863770
v -453.697107 350.228080 -2414.863770
v -162.145350 350.228080 -2414.863770
v -486.090662 -349.496529 -2414.863770
v -777.643396 -349.496529 -2414.863770
v -777.643396 350.228080 -2414.863770
v -486.090662 350.228080 -2414.863770
v -810.037928 -349.496529 -2414.863770
v -1101.590662 -349.496529 -2414.863770
v -1101.590662 350.228080 -2414.863770
v -810.037928 350.228080 -2414.863770
v -1133.984217 -349.496529 -2414.863770
v -1425.535975 -349.496529 -2414.863770
v -1425.535975 350.228080 -2414.863770
v -1133.984217 350.228080 -2414.863770
v -1457.930506 -349.496529 -2414.863770
v -1749.483240 -349.496529 -2414.863770
v -1749.483240 350.228080 -2414.863770
v -1457.930506 350.228080 -2414.863770
v -1781.876795 -349.496529 -2414.863770
v -2073.428553 -349.496529 -2414.863770
v -2073.428553 350.228080 -2414.863770
v -1781.876795 350.228080 -2414.863770
v -2394.135584 -349.496529 -2094.156250
v -2394.135584 -349.496529 -1802.604980
v -2394.135584 350.228080 -1802.604980
v -2394.135584 350.228080 -2094.156250
v -2394.135584 -349.496529 -1770.210083
v -2394.135584 -349.496529 -1478.658447
v -2394.135584 350.228080 -1478.658447
v -2394.135584 350.228080 -1770.210083
v -2394.135584 -349.496529 -1446.263672
v -2394.135584 -349.496529 -1154.711914
v -2394.135584 350.228080 -1154.711914
v -2394.135584 350.228080 -1446.263672
v -2394.135584 -349.496529 -1122.317383
v -2394.135584 -349.496529 -830.765625
v -2394.135584 350.228080 -830.765625
v -2394.135584 350.228080 -1122.317383
v -2394.135584 -349.496529 -798.371338
v -2394.135584 -349.496529 -506.819580
v -2394.135584 350.228080 -506.819580
v -2394.135584 350.228080 -798.371338
v -2394.135584 -349.496529 -474.424805
v -2394.135584 -349.496529 -182.872803
v -2394.135584 350.228080 -182.872803
v -2394.135584 350.228080 -474.424805
v -2394.135584 -349.496529 -150.478271
v -2394.135584 -349.496529 141.073242
v -2394.135584 350.228080 141.073242
v -2394.135584 350.228080 -150.478271
v -2394.135584 -349.496529 173.467773
v -2394.135584 -349.496529 465.019531
v -2394.135584 350.228080 465.019531
v -2394.135584 350.228080 173.467773
v -2394.135584 -349.496529 497.414551
v -2394.135584 -349.496529 788.965576
v -2394.135584 350.228080 788.965576
v -2394.135584 350.228080 497.414551
v -2394.135584 -349.496529 821.360107
v -2394.135584 -349.496529 1112.911865
v -2394.135584 350.228080 1112.911865
v -2394.135584 350.228080 821.360107
v -2394.135584 -349.496529 1145.306396
v -2394.135584 -349.496529 1436.859131
v -2394.135584 350.228080 1436.859131
v -2394.135584 350.228080 1145.306396
v -2394.135584 -349.496529 1469.252686
v -2394.135584 -349.496529 1760.804443
v -2394.135584 350.228080 1760.804443
v -2394.135584 350.228080 1469.252686
v -2394.135584 -349.496529 1793.199951
v -2394.135584 -349.496529 2084.751221
v -2394.135584 350.228080 2084.751221
v -2394.135584 350.228080 1793.199951
v -2073.428553 -349.496529 2405.457764
v -1781.876795 -349.496529 2405.457764
v -1781.876795 350.228080 2405.457764
v -2073.428553 350.228080 2405.457764
v -1749.483240 -349.496529 2405.457764
v -1457.930506 -349.496529 2405.457764
v -1457.930506 350.228080 2405.457764
v -1749.483240 350.228080 2405.457764
v -1425.535975 -349.496529 2405.457764
v -1133.984217 -349.496529 2405.457764
v -1133.984217 350.228080 2405.457764
v -1425.535975 350.228080 2405.457764
v -1101.590662 -349.496529 2405.457764
v -810.037928 -349.496529 2405.457764
v -810.037928 350.228080 2405.457764
v -1101.590662 350.228080 2405.457764
v -777.643396 -349.496529 2405.457764
v -486.090662 -349.496529 2405.457764
v -486.090662 350.228080 2405.457764
v -777.643396 350.228080 2405.457764
v -453.697107 -349.496529 2405.457764
v -162.145350 -349.496529 2405.457764
v -162.145350 350.228080 2405.457764
v -453.697107 350.228080 2405.457764
v -129.750818 -349.496529 2405.457764
v 161.800940 -349.496529 2405.457764
v 161.800940 350.228080 2405.457764
v -129.750818 350.228080 2405.457764
v 194.196447 -349.496529 2405.457764
v 485.748205 -349.496529 2405.457764
v 485.748205 350.228080 2405.457764
v 194.196447 350.228080 2405.457764
v 518.142736 -349.496529 2405.457764
v 809.694494 -349.496529 2405.457764
v 809.694494 350.228080 2405.457764
v 518.142736 350.228080 2405.457764
v 842.089025 -349.496529 2405.457764
v 1133.639807 -349.496529 2405.457764
v 1133.639807 350.228080 2405.457764
v 842.089025 350.228080 2405.457764
v 1166.034338 -349.496529 2405.457764
v 1457.587072 -349.496529 2405.457764
v 1457.587072 350.228080 2405.457764
v 1166.034338 350.228080 2405.457764
v 1489.981604 -349.496529 2405.457764
v 1781.533361 -349.496529 2405.457764
v 1781.533361 350.228080 2405.457764
v 1489.981604 350.228080 2405.457764
v 1813.927893 -349.496529 2405.457764
v 2105.479650 -349.496529 2405.457764
v 2105.479650 350.228080 2405.457764
v 1813.927893 350.228080 2405.457764
vt -1.032504 -0.986251
vt -0.792624 -0.986251
vt -0.792624 -0.410536
vt -1.032504 -0.410536
vt -0.768017 -0.986251
vt -0.528136 -0.986251
vt -0.528136 -0.410536
vt -0.768017 -0.410536
vt -0.504129 -0.986251
vt -0.264248 -0.986251
vt -0.264248 -0.410536
vt -0.504129 -0.410536
vt -0.240241 -0.986251
vt -0.000361 -0.986251
vt -0.000361 -0.410536
vt -0.240241 -0.410536
vt 0.023646 -0.986251
vt 0.263527 -0.986251
vt 0.263527 -0.410536
vt 0.023646 -0.410536
vt 0.287534 -0.986251
vt 0.527415 -0.986251
vt 0.527415 -0.410536
vt 0.287534 -0.410536
vt 0.551422 -0.986251
vt 0.791303 -0.986251
vt 0.791303 -0.410536
vt 0.551422 -0.410536
vt 0.815310 -0.986251
vt 1.055191 -0.986251
vt 1.055191 -0.410536
vt 0.815310 -0.410536
vt 1.079198 -0.986251
vt 1.319078 -0.986251
vt 1.319078 -0.410536
vt 1.079198 -0.410536
vt 1.343085 -0.986251
vt 1.582966 -0.986251
vt 1.582966 -0.410536
vt 1.343085 -0.410536
vt 1.606973 -0.986251
vt 1.846854 -0.986251
vt 1.846854 -0.410536
vt 1.606973 -0.410536
vt 1.792624 -0.398254
vt 2.032504 -0.398254
vt 2.032504 0.177461
vt 1.792624 0.177461
vt 1.533863 -0.398254
vt 1.773743 -0.398254
vt 1.773743 0.177461
vt 1.533863 0.177461
vt 0.023647 0.189744
vt 0.263527 0.189744
vt 0.263527 0.765459
vt 0.023647 0.765459
vt 0.287534 0.189744
vt 0.527415 0.189744
vt 0.527415 0.765459
vt 0.287534 0.765459
vt 0.551422 0.189744
vt 0.791303 0.189744
vt 0.791303 0.765459
vt 0.551422 0.765459
vt 0.815310 0.189744
vt 1.055191 0.189744
vt 1.055191 0.765459
vt 0.815310 0.765459
vt 1.079198 0.189744
vt 1.319079 0.189744
vt 1.319079 0.765459
vt 1.079198 0.765459
vt 1.343085 0.189744
vt 1.582966 0.189744
vt 1.582966 0.765459
vt 1.343085 0.765459
vt 1.606973 0.189744
vt 1.846854 0.189744
vt 1.846854 0.765459
vt 1.606973 0.765459
vt 1.792623 0.777742
vt 2.032505 0.777742
vt 2.032505 1.353456
vt 1.792623 1.353456
vt 1.533863 0.777742
vt 1.773743 0.777742
vt 1.773743 1.353456
vt 1.533863 1.353456
vt 1.275102 0.777742
vt 1.514983 0.777742
vt 1.514983 1.353456
vt 1.275102 1.353456
vt 1.016341 0.777742
vt 1.256222 0.777742
vt 1.256222 1.353456
vt 1.016341 1.353456
vt 0.757580 0.777742
vt 0.997461 0.777742
vt 0.997461 1.353456
vt 0.757580 1.353456
vt 0.498820 0.777742
vt 0.738701 0.777742
vt 0.738701 1.353456
vt 0.498820 1.353456
vt 1.514982 0.177461
vt 1.275101 0.177461
vt 1.275101 -0.398253
vt 1.514982 -0.398253
vt 1.256221 0.177461
vt 1.016340 0.177461
vt 1.016340 -0.398253
vt 1.256221 -0.398253
vt 0.997460 0.177461
vt 0.757579 0.177461
vt 0.757579 -0.398253
vt 0.997460 -0.398253
vt 0.738698 0.177461
vt 0.498817 0.177461
vt 0.498817 -0.398253
vt 0.738698 -0.398253
vt 0.479937 0.177461
vt 0.240057 0.177461
vt 0.240057 -0.398253
vt 0.479937 -0.398253
vt 0.221176 0.177461
vt -0.018705 0.177461
vt -0.018705 -0.398253
vt 0.221176 -0.398253
vt -0.037585 0.177461
vt -0.277466 0.177461
vt -0.277466 -0.398253
vt -0.037585 -0.398253
vt -0.296346 0.177461
vt -0.536227 0.177461
vt -0.536227 -0.398253
vt -0.296346 -0.398253
vt -0.555106 0.177461
vt -0.794987 0.177461
vt -0.794987 -0.398253
vt -0.555106 -0.398253
vt -0.792623 0.765459
vt -1.032504 0.765459
vt -1.032504 0.189744
vt -0.792623 0.189744
vt -0.528136 0.765459
vt -0.768017 0.765459
vt -0.768017 0.189744
vt -0.528136 0.189744
vt -0.264248 0.765459
vt -0.504129 0.765459
vt -0.504129 0.189744
vt -0.264248 0.189744
vt -0.000361 0.765459
vt -0.240241 0.765459
vt -0.240241 0.189744
vt -0.000361 0.189744
vt 0.240060 0.777742
vt 0.479941 0.777742
vt 0.479941 1.353456
vt 0.240060 1.353456
vt -0.018701 0.777742
vt 0.221180 0.777742
vt 0.221180 1.353456
vt -0.018701 1.353456
vt -0.277462 0.777742
vt -0.037582 0.777742
vt -0.037582 1.353456
vt -0.277462 1.353456
vt -0.536224 0.777742
vt -0.296343 0.777742
vt -0.296343 1.353456
vt -0.536224 1.353456
vt -0.794985 0.777742
vt -0.555104 0.777742
vt -0.555104 1.353456
vt -0.794985 1.353456
vt -1.032504 1.365738
vt -0.792624 1.365738
vt -0.792624 1.941453
vt -1.032504 1.941453
vt -0.768017 1.365738
vt -0.528135 1.365738
vt -0.528135 1.941453
vt -0.768017 1.941453
vt -0.504129 1.365738
vt -0.264248 1.365738
vt -0.264248 1.941453
vt -0.504129 1.941453
vt -0.240241 1.365739
vt -0.000361 1.365739
vt -0.000361 1.941453
vt -0.240241 1.941453
vt 0.023647 1.365739
vt 0.263528 1.365739
vt 0.263528 1.941453
vt 0.023647 1.941453
vt 0.287534 1.365739
vt 0.527415 1.365739
vt 0.527415 1.941453
vt 0.287534 1.941453
vt 0.551422 1.365739
vt 0.791303 1.365739
vt 0.791303 1.941453
vt 0.551422 1.941453
vt 0.815310 1.365739
vt 1.055191 1.365739
vt 1.055191 1.941453
vt 0.815310 1.941453
vn 1.000000 0.000000 0.000000
vn 1.000000 0.000000 0.000000
vn 1.000000 0.000000 0.000000
vn 1.000000 0.000000 0.000000
vn 1.000000 0.000000 0.000000
vn 1.000000 0.000000 0.000000
vn 1.000000 0.000000 0.000000
vn 1.000000 0.000000 0.000000
vn 1.000000 0.000000 0.000000
vn 1.000000 0.000000 0.000000
vn 1.000000 0.000000 0.000000
vn 1.000000 0.000000 0.000000
vn 1.000000 0.000000 0.000000
vn 1.000000 0.000000 0.000000
vn 1.000000 0.000000 0.000000
vn 1.000000 0.000000 0.000000
vn 1.000000 0.000000 0.000000
vn 1.000000 0.000000 0.000000
vn 1.000000 0.000000 0.000000
vn 1.000000 0.000000 0.000000
vn 1.000000 0.000000 0.000000
vn 1.000000 0.000000 0.000000
vn 1.000000 0.000000 0.000000
vn 1.000000 0.000000 0.000000
vn 1.000000 0.000000 0.000000
vn 1.000000 0.000000 0.000000
vn 1.000000 0.000000 0.000000
vn 1.000000 0.000000 0.000000
vn 1.000000 0.000000 0.000000
vn 1.000000 0.000000 0.000000
vn 1.000000 0.000000 0.000000
vn 1.000000 0.000000 0.000000
vn 1.000000 0.000000 0.000000
vn 1.000000 0.000000 0.000000
vn 1.000000 0.000000 0.000000
vn 1.000000 0.000000 0.000000
vn 1.000000 0.000000 0.000000
vn 1.000000 0.000000 0.000000
vn 1.000000 0.000000 0.000000
vn 1.000000 0.000000 0.000000
vn 1.000000 0.000000 0.000000
vn 1.000000 0.000000 0.000000
vn 1.000000 0.000000 0.000000
vn 1.000000 0.000000 0.000000
vn 1.000000 0.000000 0.000000
vn 1.000000 0.000000 0.000000
vn 1.000000 0.000000 0.000000
vn 1.000000 0.000000 0.000000
vn 1.000000 0.000000 0.000000
vn 1.000000 0.000000 0.000000
vn 1.000000 0.000000 0.000000
vn 1.000000 0.000000 0.000000
vn 0.000000 0.000000 -1.000000
vn 0.000000 0.000000 -1.000000
vn 0.000000 0.000000 -1.000000
vn 0.000000 0.000000 -1.000000
vn 0.000000 0.000000 -1.000000
vn 0.000000 0.000000 -1.000000
vn 0.000000 0.000000 -1.000000
vn 0.000000 0.000000 -1.000000
vn 0.000000 0.000000 -1.000000
vn 0.000000 0.000000 -1.000000
vn 0.000000 0.000000 -1.000000
vn 0.000000 0.000000 -1.000000
vn 0.000000 0.000000 -1.000000
vn 0.000000 0.000000 -1.000000
vn 0.000000 0.000000 -1.000000
vn 0.000000 0.000000 -1.000000
vn 0.000000 0.000000 -1.000000
vn 0.000000 0.000000 -1.000000
vn 0.000000 0.000000 -1.000000
vn 0.000000 0.000000 -1.000000
vn 0.000000 0.000000 -1.000000
vn 0.000000 0.000000 -1.000000
vn 0.000000 0.000000 -1.000000
vn 0.000000 0.000000 -1.000000
vn 0.000000 0.000000 -1.000000
vn 0.000000 0.000000 -1.000000
vn 0.000000 0.000000 -1.000000
vn 0.000000 0.000000 -1.000000
vn 0.000000 0.000000 -1.000000
vn 0.000000 0.000000 -1.000000
vn 0.000000 0.000000 -1.000000
vn 0.000000 0.000000 -1.000000
vn 0.000000 0.000000 -1.000000
vn 0.000000 0.000000 -1.000000
vn 0.000000 0.000000 -1.000000
vn 0.000000 0.000000 -1.000000
vn 0.000000 0.000000 -1.000000
vn 0.000000 0.000000 -1.000000
vn 0.000000 0.000000 -1.000000
vn 0.000000 0.000000 -1.000000
vn 0.000000 0.000000 -1.000000
vn 0.000000 0.000000 -1.000000
vn 0.000000 0.000000 -1.000000
vn 0.000000 0.000000 -1.000000
vn 0.000000 0.000000 -1.000000
vn 0.000000 0.000000 -1.000000
vn 0.000000 0.000000 -1.000000
vn 0.000000 0.000000 -1.000000
vn 0.000000 0.000000 -1.000000
vn 0.000000 0.000000 -1.000000
vn 0.000000 0.000000 -1.000000
vn 0.000000 0.000000 -1.000000
vn -1.000000 0.000000 0.000000
vn -1.000000 0.000000 0.000000
vn -1.000000 0.000000 0.000000
vn -1.000000 0.000000 0.000000
vn -1.000000 0.000000 0.000000
vn -1.000000 0.000000 0.000000
vn -1.000000 0.000000 0.000000
vn -1.000000 0.000000 0.000000
vn -1.000000 0.000000 0.000000
vn -1.000000 0.000000 0.000000
vn -1.000000 0.000000 0.000000
vn -1.000000 0.000000 0.000000
vn -1.000000 0.000000 0.000000
vn -1.000000 0.000000 0.000000
vn -1.000000 0.000000 0.000000
vn -1.000000 0.000000 0.000000
vn -1.000000 0.000000 0.000000
vn -1.000000 0.000000 0.000000
vn -1.000000 0.000000 0.000000
vn -1.000000 0.000000 0.000000
vn -1.000000 0.000000 0.000000
vn -1.000000 0.000000 0.000000
vn -1.000000 0.000000 0.000000
vn -1.000000 0.000000 0.000000
vn -1.000000 0.000000 0.000000
vn -1.000000 0.000000 0.000000
vn -1.000000 0.000000 0.000000
vn -1.000000 0.000000 0.000000
vn -1.000000 0.000000 0.000000
vn -1.000000 0.000000 0.000000
vn -1.000000 0.000000 0.000000
vn -1.000000 0.000000 0.000000
vn -1.000000 0.000000 0.000000
vn -1.000000 0.000000 0.000000
vn -1.000000 0.000000 0.000000
vn -1.000000 0.000000 0.000000
vn -1.000000 0.000000 0.000000
vn -1.000000 0.000000 0.000000
vn -1.000000 0.000000 0.000000
vn -1.000000 0.000000 0.000000
vn -1.000000 0.000000 0.000000
vn -1.000000 0.000000 0.000000
vn -1.000000 0.000000 0.000000
vn -1.000000 0.000000 0.000000
vn -1.000000 0.000000 0.000000
vn -1.000000 0.000000 0.000000
vn -1.000000 0.000000 0.000000
vn -1.000000 0.000000 0.000000
vn -1.000000 0.000000 0.000000
vn -1.000000 0.000000 0.000000
vn -1.000000 0.000000 0.000000
vn -1.000000 0.000000 0.000000
vn 0.000000 0.000000 1.000000
vn 0.000000 0.000000 1.000000
vn 0.000000 0.000000 1.000000
vn 0.000000 0.000000 1.000000
vn 0.000000 0.000000 1.000000
vn 0.000000 0.000000 1.000000
vn 0.000000 0.000000 1.000000
vn 0.000000 0.000000 1.000000
vn 0.000000 0.000000 1.000000
vn 0.000000 0.000000 1.000000
vn 0.000000 0.000000 1.000000
vn 0.000000 0.000000 1.000000
vn 0.000000 0.000000 1.000000
vn 0.000000 0.000000 1.000000
vn 0.000000 0.000000 1.000000
vn 0.000000 0.000000 1.000000
vn 0.000000 0.000000 1.000000
vn 0.000000 0.000000 1.000000
vn 0.000000 0.000000 1.000000
vn 0.000000 0.000000 1.000000
vn 0.000000 0.000000 1.000000
vn 0.000000 0.000000 1.000000
vn 0.000000 0.000000 1.000000
vn 0.000000 0.000000 1.000000
vn 0.000000 0.000000 1.000000
vn 0.000000 0.000000 1.000000
vn 0.000000 0.000000 1.000000
vn 0.000000 0.000000 1.000000
vn 0.000000 0.000000 1.000000
vn 0.000000 0.000000 1.000000
vn 0.000000 0.000000 1.000000
vn 0.000000 0.000000 1.000000
vn 0.000000 0.000000 1.000000
vn 0.000000 0.000000 1.000000
vn 0.000000 0.000000 1.000000
vn 0.000000 0.000000 1.000000
vn 0.000000 0.000000 1.000000
vn 0.000000 0.000000 1.000000
vn 0.000000 0.000000 1.000000
vn 0.000000 0.000000 1.000000
vn 0.000000 0.000000 1.000000
vn 0.000000 0.000000 1.000000
vn 0.000000 0.000000 1.000000
vn 0.000000 0.000000 1.000000
vn 0.000000 0.000000 1.000000
vn 0.000000 0.000000 1.000000
vn 0.000000 0.000000 1.000000
vn 0.000000 0.000000 1.000000
vn 0.000000 0.000000 1.000000
vn 0.000000 0.000000 1.000000
vn 0.000000 0.000000 1.000000
vn 0.000000 0.000000 1.000000
s off
g SquareWindow
usemtl initialShadingGroup
f 1/1/1 2/2/2 3/3/3 4/4/4
f 5/5/5 6/6/6 7/7/7 8/8/8
f 9/9/9 10/10/10 11/11/11 12/12/12
f 13/13/13 14/14/14 15/15/15 16/16/16
f 17/17/17 18/18/18 19/19/19 20/20/20
f 21/21/21 22/22/22 23/23/23 24/24/24
f 25/25/25 26/26/26 27/27/27 28/28/28
f 29/29/29 30/30/30 31/31/31 32/32/32
f 33/33/33 34/34/34 35/35/35 36/36/36
f 37/37/37 38/38/38 39/39/39 40/40/40
f 41/41/41 42/42/42 43/43/43 44/44/44
f 45/45/45 46/46/46 47/47/47 48/48/48
f 49/49/49 50/50/50 51/51/51 52/52/52
f 53/105/53 54/106/54 55/107/55 56/108/56
f 57/109/57 58/110/58 59/111/59 60/112/60
f 61/113/61 62/114/62 63/115/63 64/116/64
f 65/117/65 66/118/66 67/119/67 68/120/68
f 69/121/69 70/122/70 71/123/71 72/124/72
f 73/125/73 74/126/74 75/127/75 76/128/76
f 77/129/77 78/130/78 79/131/79 80/132/80
f 81/133/81 82/134/82 83/135/83 84/136/84
f 85/137/85 86/138/86 87/139/87 88/140/88
f 89/141/89 90/142/90 91/143/91 92/144/92
f 93/145/93 94/146/94 95/147/95 96/148/96
f 97/149/97 98/150/98 99/151/99 100/152/100
f 101/153/101 102/154/102 103/155/103 104/156/104
f 105/53/105 106/54/106 107/55/107 108/56/108
f 109/57/109 110/58/110 111/59/111 112/60/112
f 113/61/113 114/62/114 115/63/115 116/64/116
f 117/65/117 118/66/118 119/67/119 120/68/120
f 121/69/121 122/70/122 123/71/123 124/72/124
f 125/73/125 126/74/126 127/75/127 128/76/128
f 129/77/129 130/78/130 131/79/131 132/80/132
f 133/81/133 134/82/134 135/83/135 136/84/136
f 137/85/137 138/86/138 139/87/139 140/88/140
f 141/89/141 142/90/142 143/91/143 144/92/144
f 145/93/145 146/94/146 147/95/147 148/96/148
f 149/97/149 150/98/150 151/99/151 152/100/152
f 153/101/153 154/102/154 155/103/155 156/104/156
f 157/157/157 158/158/158 159/159/159 160/160/160
f 161/161/161 162/162/162 163/163/163 164/164/164
f 165/165/165 166/166/166 167/167/167 168/168/168
f 169/169/169 170/170/170 171/171/171 172/172/172
f 173/173/173 174/174/174 175/175/175 176/176/176
f 177/177/177 178/178/178 179/179/179 180/180/180
f 181/181/181 182/182/182 183/183/183 184/184/184
f 185/185/185 186/186/186 187/187/187 188/188/188
f 189/189/189 190/190/190 191/191/191 192/192/192
f 193/193/193 194/194/194 195/195/195 196/196/196
f 197/197/197 198/198/198 199/199/199 200/200/200
f 201/201/201 202/202/202 203/203/203 204/204/204
f 205/205/205 206/206/206 207/207/207 208/208/208
