# This file uses centimeters as units for non-parametric coordinates.

mtllib Cobweb.mtl
g default
v -49.087140 61.822648 23.378512
v -46.982146 55.489872 19.035996
v -41.856626 48.674797 14.412834
v -36.173231 42.079071 9.144838
v -32.245673 36.030800 4.514138
v -28.199732 30.025667 0.857711
v -24.033815 24.020532 -1.753596
v -20.688193 18.015401 -3.985649
v -19.066406 12.010266 -6.601176
v -18.551647 6.005131 -8.410259
v -18.509622 -0.000000 -6.407094
v -38.131505 61.238339 19.035996
v -36.015250 54.853288 16.341688
v -31.638728 48.233040 11.661114
v -28.280965 42.035933 6.345287
v -25.681257 36.030800 1.590255
v -22.702412 30.025667 -1.748238
v -19.702755 24.020532 -4.655169
v -17.354709 18.015401 -6.632339
v -16.243875 12.010266 -8.600757
v -15.996761 6.005131 -10.147707
v -16.073760 -0.000000 -10.108817
v -24.538570 60.238351 14.438325
v -23.301386 54.143496 11.722011
v -21.744946 48.081507 7.124136
v -20.628617 42.035933 2.091161
v -19.133678 36.030800 -2.087132
v -17.314579 30.025667 -4.610038
v -15.508935 24.020532 -7.732967
v -14.069293 18.015401 -9.257132
v -13.455668 12.010266 -10.600516
v -13.495004 6.005131 -11.781524
v -13.729530 -0.000000 -11.866207
v -14.517221 60.206770 13.166910
v -14.270532 55.139898 8.969912
v -13.783174 49.783710 3.037098
v -13.223868 42.722287 -2.050857
v -12.606994 36.030800 -5.196856
v -11.751824 30.025667 -6.892256
v -10.891366 24.020532 -10.087077
v -10.173902 18.015401 -11.322998
v -9.950074 12.010266 -12.187268
v -10.213044 6.005131 -12.900966
v -10.578315 -0.000000 -12.862880
v -6.840119 59.693221 14.211555
v -6.742616 56.505507 8.181205
v -6.564324 52.089171 0.810232
v -6.368391 43.989883 -4.560918
v -6.198613 36.030800 -6.732589
v -5.955232 30.025667 -8.225092
v -5.687509 24.020532 -10.965532
v -5.430574 18.015401 -12.296459
v -5.439933 12.010266 -12.880110
v -5.807264 6.005131 -13.186215
v -6.200805 -0.000000 -12.926115
v -0.000000 60.051334 13.732927
v -0.000000 57.389364 7.457484
v -0.000000 52.957973 0.166583
v -0.000000 44.546902 -4.861268
v -0.000000 36.111644 -6.844844
v 0.000000 30.025667 -8.378259
v -0.000000 24.020532 -10.464863
v 0.000000 18.015401 -11.691528
v 0.010309 12.010266 -12.295909
v -0.049390 6.005131 -12.766133
v -0.174494 0.000000 -12.607237
v 6.840122 59.693221 14.211555
v 6.742618 56.505507 8.181205
v 6.564326 52.089171 0.810232
v 6.368393 43.989883 -4.560919
v 6.198615 36.030800 -6.732590
v 5.955233 30.025667 -8.225090
v 5.687511 24.020532 -10.965531
v 5.433855 18.015401 -12.292309
v 5.547549 12.010266 -12.744464
v 6.014083 6.005131 -12.866692
v 6.256985 0.000000 -12.552154
v 14.517221 60.206770 13.166910
v 14.270532 55.139898 8.969912
v 13.783174 49.783710 3.037098
v 13.223869 42.722287 -2.050858
v 12.606993 36.030800 -5.196856
v 11.751824 30.025667 -6.892258
v 10.891367 24.020532 -10.087077
v 10.211544 18.015401 -11.275426
v 10.204786 12.010266 -11.865377
v 10.803847 6.005131 -12.154349
v 11.235039 0.000000 -11.892731
v 24.474568 60.381195 14.438325
v 23.272730 54.208012 11.722011
v 21.744946 48.081507 7.124137
v 20.628619 42.035933 2.091162
v 19.133676 36.030800 -2.087133
v 17.314579 30.025667 -4.610037
v 15.508935 24.020532 -7.732965
v 14.176907 18.015401 -9.121488
v 13.919023 12.010266 -10.014961
v 14.415895 6.005131 -10.617774
v 14.811497 0.000002 -10.425916
v 37.869608 61.406081 19.035996
v 35.821543 55.048228 16.341688
v 31.577006 48.360336 11.661116
v 28.280967 42.035933 6.345285
v 25.681259 36.030800 1.590254
v 22.702414 30.025667 -1.748240
v 19.702755 24.020532 -4.655173
v 17.540843 18.015401 -6.397122
v 16.910423 12.010266 -7.758423
v 17.191070 6.005128 -8.638435
v 17.483910 0.000000 -8.313418
v 48.723415 61.932831 23.378512
v 46.682895 55.594127 19.035996
v 41.710417 48.797384 14.412834
v 36.158466 42.112313 9.144835
v 32.245673 36.030800 4.514137
v 28.199732 30.025667 0.857711
v 24.033817 24.020532 -1.753596
v 20.900201 18.015401 -3.717732
v 19.829331 12.010266 -5.637042
v 19.879699 6.005129 -6.731950
v 20.103623 0.000000 -4.392710
vt 0.000000 0.000000
vt 0.100000 0.000000
vt 0.200000 0.000000
vt 0.300000 0.000000
vt 0.400000 0.000000
vt 0.500000 0.000000
vt 0.600000 0.000000
vt 0.700000 0.000000
vt 0.800000 0.000000
vt 0.900000 0.000000
vt 1.000000 0.000000
vt 0.000000 0.100000
vt 0.100000 0.100000
vt 0.200000 0.100000
vt 0.300000 0.100000
vt 0.400000 0.100000
vt 0.500000 0.100000
vt 0.600000 0.100000
vt 0.700000 0.100000
vt 0.800000 0.100000
vt 0.900000 0.100000
vt 1.000000 0.100000
vt 0.000000 0.200000
vt 0.100000 0.200000
vt 0.200000 0.200000
vt 0.300000 0.200000
vt 0.400000 0.200000
vt 0.500000 0.200000
vt 0.600000 0.200000
vt 0.700000 0.200000
vt 0.800000 0.200000
vt 0.900000 0.200000
vt 1.000000 0.200000
vt 0.000000 0.300000
vt 0.100000 0.300000
vt 0.200000 0.300000
vt 0.300000 0.300000
vt 0.400000 0.300000
vt 0.500000 0.300000
vt 0.600000 0.300000
vt 0.700000 0.300000
vt 0.800000 0.300000
vt 0.900000 0.300000
vt 1.000000 0.300000
vt 0.000000 0.400000
vt 0.100000 0.400000
vt 0.200000 0.400000
vt 0.300000 0.400000
vt 0.400000 0.400000
vt 0.500000 0.400000
vt 0.600000 0.400000
vt 0.700000 0.400000
vt 0.800000 0.400000
vt 0.900000 0.400000
vt 1.000000 0.400000
vt 0.000000 0.500000
vt 0.100000 0.500000
vt 0.200000 0.500000
vt 0.300000 0.500000
vt 0.400000 0.500000
vt 0.500000 0.500000
vt 0.600000 0.500000
vt 0.700000 0.500000
vt 0.800000 0.500000
vt 0.900000 0.500000
vt 1.000000 0.500000
vt 0.000000 0.600000
vt 0.100000 0.600000
vt 0.200000 0.600000
vt 0.300000 0.600000
vt 0.400000 0.600000
vt 0.500000 0.600000
vt 0.600000 0.600000
vt 0.700000 0.600000
vt 0.800000 0.600000
vt 0.900000 0.600000
vt 1.000000 0.600000
vt 0.000000 0.700000
vt 0.100000 0.700000
vt 0.200000 0.700000
vt 0.300000 0.700000
vt 0.400000 0.700000
vt 0.500000 0.700000
vt 0.600000 0.700000
vt 0.700000 0.700000
vt 0.800000 0.700000
vt 0.900000 0.700000
vt 1.000000 0.700000
vt 0.000000 0.800000
vt 0.100000 0.800000
vt 0.200000 0.800000
vt 0.300000 0.800000
vt 0.400000 0.800000
vt 0.500000 0.800000
vt 0.600000 0.800000
vt 0.700000 0.800000
vt 0.800000 0.800000
vt 0.900000 0.800000
vt 1.000000 0.800000
vt 0.000000 0.900000
vt 0.100000 0.900000
vt 0.200000 0.900000
vt 0.300000 0.900000
vt 0.400000 0.900000
vt 0.500000 0.900000
vt 0.600000 0.900000
vt 0.700000 0.900000
vt 0.800000 0.900000
vt 0.900000 0.900000
vt 1.000000 0.900000
vt 0.000000 1.000000
vt 0.100000 1.000000
vt 0.200000 1.000000
vt 0.300000 1.000000
vt 0.400000 1.000000
vt 0.500000 1.000000
vt 0.600000 1.000000
vt 0.700000 1.000000
vt 0.800000 1.000000
vt 0.900000 1.000000
vt 1.000000 1.000000
vn 0.259832 -0.400051 0.878890
vn 0.241942 -0.417879 0.875695
vn 0.260935 -0.398784 0.879138
vn 0.273973 -0.366807 0.889040
vn 0.208568 -0.471591 0.856797
vn 0.285084 -0.483625 0.827547
vn 0.258721 -0.502674 0.824853
vn 0.349172 -0.489477 0.799056
vn 0.343737 -0.422613 0.838596
vn 0.413851 -0.367446 0.832893
vn 0.422850 -0.234956 0.875211
vn 0.469791 -0.198309 0.860215
vn 0.513894 -0.081389 0.853984
vn 0.548224 -0.107322 0.829417
vn 0.590327 -0.054098 0.805349
vn 0.599186 -0.084424 0.796146
vn 0.582022 -0.174182 0.794299
vn 0.580386 -0.162570 0.797949
vn 0.661016 -0.033756 0.749612
vn 0.618223 -0.063872 0.783403
vn 0.732184 0.112094 0.671820
vn 0.667669 0.055407 0.742394
vn 0.300677 -0.462256 0.834214
vn 0.267036 -0.374083 0.888118
vn 0.386746 -0.522519 0.759870
vn 0.438554 -0.467757 0.767381
vn 0.442919 -0.331116 0.833178
vn 0.445186 -0.245824 0.861034
vn 0.488685 -0.205797 0.847841
vn 0.523004 -0.109298 0.845293
vn 0.487961 -0.148004 0.860226
vn 0.446510 -0.094774 0.889745
vn 0.441034 -0.018873 0.897292
vn 0.257314 -0.660777 0.705098
vn 0.133905 -0.626752 0.767627
vn 0.393073 -0.591268 0.704199
vn 0.404888 -0.439939 0.801573
vn 0.348335 -0.296612 0.889204
vn 0.301717 -0.308209 0.902205
vn 0.298364 -0.289278 0.909559
vn 0.305066 -0.144854 0.941250
vn 0.262038 -0.121955 0.957321
vn 0.192710 -0.058880 0.979488
vn 0.165127 0.003447 0.986266
vn 0.168243 -0.822954 0.542624
vn 0.075724 -0.841622 0.534732
vn 0.252722 -0.669826 0.698187
vn 0.223739 -0.417977 0.880475
vn 0.154083 -0.261855 0.952728
vn 0.100730 -0.321686 0.941473
vn 0.056219 -0.307017 0.950042
vn 0.027018 -0.155905 0.987402
vn 0.009175 -0.090115 0.995889
vn -0.009441 -0.020919 0.999737
vn -0.016907 0.030744 0.999384
vn 0.000000 -0.877127 0.480259
vn -0.000000 -0.902780 0.430102
vn 0.000000 -0.706830 0.707383
vn 0.000000 -0.411494 0.911413
vn 0.000000 -0.244051 0.969762
vn -0.000000 -0.308773 0.951136
vn -0.000086 -0.298071 0.954544
vn -0.003249 -0.153255 0.988181
vn -0.012995 -0.073161 0.997235
vn -0.024421 -0.006546 0.999680
vn -0.028951 0.038495 0.998839
vn -0.168243 -0.822954 0.542624
vn -0.075724 -0.841622 0.534732
vn -0.252722 -0.669826 0.698187
vn -0.223738 -0.417977 0.880475
vn -0.154083 -0.261855 0.952728
vn -0.100730 -0.321686 0.941473
vn -0.057250 -0.306000 0.950309
vn -0.036042 -0.145127 0.988756
vn -0.043526 -0.067370 0.996778
vn -0.056113 -0.002948 0.998420
vn -0.061394 0.039636 0.997326
vn -0.256212 -0.660395 0.705857
vn -0.131701 -0.625644 0.768911
vn -0.392819 -0.591079 0.704499
vn -0.404888 -0.439939 0.801573
vn -0.348335 -0.296612 0.889204
vn -0.301717 -0.308209 0.902205
vn -0.300493 -0.285979 0.909901
vn -0.316935 -0.126223 0.940010
vn -0.299940 -0.083530 0.950294
vn -0.267232 -0.024585 0.963319
vn -0.256024 0.025253 0.966340
vn -0.299305 -0.462448 0.834601
vn -0.266892 -0.374167 0.888126
vn -0.385679 -0.521966 0.760791
vn -0.438230 -0.467495 0.767726
vn -0.442919 -0.331116 0.833178
vn -0.445185 -0.245824 0.861034
vn -0.490523 -0.200867 0.847962
vn -0.531859 -0.089224 0.842120
vn -0.515469 -0.110038 0.849814
vn -0.493826 -0.059381 0.867531
vn -0.494586 0.004263 0.869118
vn -0.263518 -0.398966 0.878285
vn -0.277605 -0.367404 0.887665
vn -0.284760 -0.482240 0.828466
vn -0.348200 -0.488102 0.800321
vn -0.413747 -0.367400 0.832965
vn -0.469791 -0.198310 0.860215
vn -0.549607 -0.101106 0.829283
vn -0.604746 -0.062325 0.793976
vn -0.596271 -0.127131 0.792653
vn -0.632637 -0.039586 0.773436
vn -0.679580 0.065869 0.730638
vn -0.245847 -0.418792 0.874170
vn -0.264419 -0.400968 0.877102
vn -0.211947 -0.470546 0.856543
vn -0.259516 -0.499435 0.826569
vn -0.343307 -0.422350 0.838904
vn -0.422850 -0.234957 0.875211
vn -0.515213 -0.076387 0.853651
vn -0.593582 -0.036818 0.803931
vn -0.592102 -0.137217 0.794095
vn -0.673297 -0.001732 0.739370
vn -0.734194 0.116776 0.668822
s 1
g pPlane1
usemtl initialShadingGroup
f 1/1/1 2/2/2 13/13/3 12/12/4
f 2/2/2 3/3/5 14/14/6 13/13/3
f 3/3/5 4/4/7 15/15/8 14/14/6
f 4/4/7 5/5/9 16/16/10 15/15/8
f 5/5/9 6/6/11 17/17/12 16/16/10
f 6/6/11 7/7/13 18/18/14 17/17/12
f 7/7/13 8/8/15 19/19/16 18/18/14
f 8/8/15 9/9/17 20/20/18 19/19/16
f 9/9/17 10/10/19 21/21/20 20/20/18
f 10/10/19 11/11/21 22/22/22 21/21/20
f 12/12/4 13/13/3 24/24/23 23/23/24
f 13/13/3 14/14/6 25/25/25 24/24/23
f 14/14/6 15/15/8 26/26/26 25/25/25
f 15/15/8 16/16/10 27/27/27 26/26/26
f 16/16/10 17/17/12 28/28/28 27/27/27
f 17/17/12 18/18/14 29/29/29 28/28/28
f 18/18/14 19/19/16 30/30/30 29/29/29
f 19/19/16 20/20/18 31/31/31 30/30/30
f 20/20/18 21/21/20 32/32/32 31/31/31
f 21/21/20 22/22/22 33/33/33 32/32/32
f 23/23/24 24/24/23 35/35/34 34/34/35
f 24/24/23 25/25/25 36/36/36 35/35/34
f 25/25/25 26/26/26 37/37/37 36/36/36
f 26/26/26 27/27/27 38/38/38 37/37/37
f 27/27/27 28/28/28 39/39/39 38/38/38
f 28/28/28 29/29/29 40/40/40 39/39/39
f 29/29/29 30/30/30 41/41/41 40/40/40
f 30/30/30 31/31/31 42/42/42 41/41/41
f 31/31/31 32/32/32 43/43/43 42/42/42
f 32/32/32 33/33/33 44/44/44 43/43/43
f 34/34/35 35/35/34 46/46/45 45/45/46
f 35/35/34 36/36/36 47/47/47 46/46/45
f 36/36/36 37/37/37 48/48/48 47/47/47
f 37/37/37 38/38/38 49/49/49 48/48/48
f 38/38/38 39/39/39 50/50/50 49/49/49
f 39/39/39 40/40/40 51/51/51 50/50/50
f 40/40/40 41/41/41 52/52/52 51/51/51
f 41/41/41 42/42/42 53/53/53 52/52/52
f 42/42/42 43/43/43 54/54/54 53/53/53
f 43/43/43 44/44/44 55/55/55 54/54/54
f 45/45/46 46/46/45 57/57/56 56/56/57
f 46/46/45 47/47/47 58/58/58 57/57/56
f 47/47/47 48/48/48 59/59/59 58/58/58
f 48/48/48 49/49/49 60/60/60 59/59/59
f 49/49/49 50/50/50 61/61/61 60/60/60
f 50/50/50 51/51/51 62/62/62 61/61/61
f 51/51/51 52/52/52 63/63/63 62/62/62
f 52/52/52 53/53/53 64/64/64 63/63/63
f 53/53/53 54/54/54 65/65/65 64/64/64
f 54/54/54 55/55/55 66/66/66 65/65/65
f 56/56/57 57/57/56 68/68/67 67/67/68
f 57/57/56 58/58/58 69/69/69 68/68/67
f 58/58/58 59/59/59 70/70/70 69/69/69
f 59/59/59 60/60/60 71/71/71 70/70/70
f 60/60/60 61/61/61 72/72/72 71/71/71
f 61/61/61 62/62/62 73/73/73 72/72/72
f 62/62/62 63/63/63 74/74/74 73/73/73
f 63/63/63 64/64/64 75/75/75 74/74/74
f 64/64/64 65/65/65 76/76/76 75/75/75
f 65/65/65 66/66/66 77/77/77 76/76/76
f 67/67/68 68/68/67 79/79/78 78/78/79
f 68/68/67 69/69/69 80/80/80 79/79/78
f 69/69/69 70/70/70 81/81/81 80/80/80
f 70/70/70 71/71/71 82/82/82 81/81/81
f 71/71/71 72/72/72 83/83/83 82/82/82
f 72/72/72 73/73/73 84/84/84 83/83/83
f 73/73/73 74/74/74 85/85/85 84/84/84
f 74/74/74 75/75/75 86/86/86 85/85/85
f 75/75/75 76/76/76 87/87/87 86/86/86
f 76/76/76 77/77/77 88/88/88 87/87/87
f 78/78/79 79/79/78 90/90/89 89/89/90
f 79/79/78 80/80/80 91/91/91 90/90/89
f 80/80/80 81/81/81 92/92/92 91/91/91
f 81/81/81 82/82/82 93/93/93 92/92/92
f 82/82/82 83/83/83 94/94/94 93/93/93
f 83/83/83 84/84/84 95/95/95 94/94/94
f 84/84/84 85/85/85 96/96/96 95/95/95
f 85/85/85 86/86/86 97/97/97 96/96/96
f 86/86/86 87/87/87 98/98/98 97/97/97
f 87/87/87 88/88/88 99/99/99 98/98/98
f 89/89/90 90/90/89 101/101/100 100/100/101
f 90/90/89 91/91/91 102/102/102 101/101/100
f 91/91/91 92/92/92 103/103/103 102/102/102
f 92/92/92 93/93/93 104/104/104 103/103/103
f 93/93/93 94/94/94 105/105/105 104/104/104
f 94/94/94 95/95/95 106/106/106 105/105/105
f 95/95/95 96/96/96 107/107/107 106/106/106
f 96/96/96 97/97/97 108/108/108 107/107/107
f 97/97/97 98/98/98 109/109/109 108/108/108
f 98/98/98 99/99/99 110/110/110 109/109/109
f 100/100/101 101/101/100 112/112/111 111/111/112
f 101/101/100 102/102/102 113/113/113 112/112/111
f 102/102/102 103/103/103 114/114/114 113/113/113
f 103/103/103 104/104/104 115/115/115 114/114/114
f 104/104/104 105/105/105 116/116/116 115/115/115
f 105/105/105 106/106/106 117/117/117 116/116/116
f 106/106/106 107/107/107 118/118/118 117/117/117
f 107/107/107 108/108/108 119/119/119 118/118/118
f 108/108/108 109/109/109 120/120/120 119/119/119
f 109/109/109 110/110/110 121/121/121 120/120/120
