# This file uses centimeters as units for non-parametric coordinates.

mtllib FloorLP.mtl
g default
v 10.513288 0.951994 -24.621344
v 30.400087 0.244961 -24.589523
v 31.306637 0.321871 -4.758637
v 10.418989 0.829798 -23.535429
v 11.437471 1.463748 -23.498539
v 11.481880 1.213204 -24.688732
v 28.666203 0.346266 -24.667011
v 28.772654 0.660473 -23.060564
v 31.171585 0.378916 -23.064447
v 31.287159 0.244343 -5.757657
v 29.420229 0.573663 -5.656280
v 29.799810 0.434977 -3.853597
v 10.469394 0.863828 -3.926887
v 12.533007 0.956284 -4.070187
v 12.451932 0.178025 -5.974673
v 10.516504 0.193770 -5.971945
v 12.405979 -0.158107 -8.032211
v 10.519409 -0.006471 -8.036065
v 12.298107 -0.038563 -10.165925
v 10.516097 -0.102684 -10.209478
v 12.226061 0.428466 -12.270123
v 10.470567 0.199911 -12.359389
v 12.211170 0.782033 -14.236796
v 10.507551 0.146248 -14.406507
v 11.741533 1.074572 -16.337948
v 10.517801 0.144014 -16.503317
v 11.325114 1.469769 -19.014162
v 10.300665 1.057148 -19.031261
v 11.364300 1.470040 -21.603046
v 10.335164 1.241775 -21.789690
v 12.773960 1.562668 -18.978443
v 13.249670 1.663093 -21.216635
v 13.582315 1.724244 -23.226311
v 15.288345 1.533433 -20.808130
v 15.632881 1.729497 -22.834591
v 15.623304 0.955804 -24.729294
v 13.584574 1.173720 -24.801786
v 17.511080 1.217888 -22.893049
v 17.430344 0.992463 -24.817823
v 19.645193 0.986035 -22.704687
v 19.829739 0.896596 -24.649275
v 21.725557 1.065307 -22.488382
v 21.767111 1.134442 -24.406883
v 23.857174 1.134428 -23.142189
v 23.697739 0.973385 -24.636068
v 26.379887 0.920556 -23.304007
v 26.331644 0.377610 -24.647234
v 24.084911 1.117221 -21.200880
v 26.500776 0.977538 -21.490477
v 28.839031 0.734188 -21.179966
v 26.717012 0.599400 -19.265251
v 28.923103 0.378326 -19.115562
v 31.198662 0.170180 -19.089018
v 31.124725 0.372459 -21.094278
v 29.060711 -0.142115 -16.901241
v 31.259592 -0.056605 -16.885557
v 29.109138 -0.268006 -14.586281
v 31.258484 -0.143699 -14.574514
v 29.139372 -0.300459 -12.257007
v 31.250843 -0.110416 -12.260669
v 29.158390 -0.182960 -9.910998
v 31.264198 -0.084089 -9.906698
v 29.176836 0.044496 -7.581242
v 31.268250 0.095765 -7.603793
v 27.079597 -0.041515 -7.359458
v 27.266352 0.694317 -5.317965
v 27.068306 -0.217361 -9.924973
v 24.974199 -0.241791 -10.025247
v 25.034830 -0.134865 -7.727628
v 27.018440 -0.343538 -12.269830
v 24.871483 -0.297873 -12.278652
v 22.676596 -0.207740 -12.174881
v 22.797266 -0.294995 -9.883245
v 26.974503 -0.298061 -14.587098
v 24.860846 -0.116719 -14.540269
v 22.709454 0.116645 -14.450270
v 20.440506 0.374707 -14.474833
v 20.595926 -0.133153 -12.176309
v 24.902504 0.196481 -16.913960
v 22.599506 0.512342 -16.479874
v 20.093811 0.922613 -16.438810
v 17.658709 1.089577 -16.476316
v 18.203255 0.637100 -14.332840
v 22.098478 1.000063 -18.322603
v 19.629162 1.183831 -18.421490
v 17.230146 1.063290 -18.692102
v 14.789616 1.183791 -18.769844
v 15.174241 0.989352 -16.433859
v 19.564880 0.987570 -20.580786
v 17.416773 1.018919 -20.801935
v 21.751432 1.051085 -20.326231
v 24.588200 0.848023 -19.117191
v 26.930651 -0.034201 -16.926113
v 13.202047 1.249168 -16.364973
v 14.110972 0.936742 -14.105093
v 16.218821 0.834158 -14.159221
v 14.241986 0.431975 -12.098467
v 16.357187 0.259415 -12.122385
v 18.471748 0.075127 -12.187489
v 16.365578 -0.134356 -10.066486
v 18.499744 -0.208149 -10.066869
v 20.666056 -0.254371 -9.948213
v 18.552450 -0.229048 -7.968714
v 20.735720 -0.189053 -7.786819
v 22.905046 -0.147624 -7.663555
v 20.765638 0.156582 -5.725824
v 23.036732 0.318150 -5.586940
v 25.087374 0.226090 -5.646162
v 23.237272 0.757824 -3.829913
v 25.124992 0.412414 -3.901737
v 27.310390 0.890490 -3.895549
v 20.619600 0.883150 -3.857942
v 18.595140 0.053992 -5.944530
v 18.631186 0.988039 -4.136118
v 16.517473 0.169735 -5.919718
v 16.554745 0.985909 -4.073955
v 14.457292 0.093678 -5.996641
v 14.493487 0.784719 -4.043993
v 16.454893 -0.202860 -7.951433
v 14.395397 -0.199759 -8.038111
v 14.267300 -0.059740 -10.096318
vt 0.550358 0.938917
vt 0.548476 0.917223
vt 0.568805 0.916486
vt 0.569692 0.940263
vt 0.947314 0.938281
vt 0.912704 0.939829
vt 0.914829 0.907736
vt 0.962714 0.907813
vt 0.965410 0.542101
vt 0.965021 0.562059
vt 0.927755 0.560034
vt 0.935332 0.524020
vt 0.549482 0.525484
vt 0.590673 0.528347
vt 0.589055 0.566394
vt 0.550422 0.566340
vt 0.588137 0.607500
vt 0.550480 0.607577
vt 0.585984 0.650127
vt 0.550414 0.650997
vt 0.584546 0.692165
vt 0.549505 0.693948
vt 0.584249 0.731455
vt 0.550243 0.734845
vt 0.574875 0.773431
vt 0.550448 0.776735
vt 0.566563 0.826897
vt 0.546114 0.827238
vt 0.567345 0.878618
vt 0.546802 0.882346
vt 0.595483 0.826183
vt 0.604978 0.870898
vt 0.611618 0.911047
vt 0.645672 0.862737
vt 0.652549 0.903221
vt 0.652358 0.941074
vt 0.611663 0.942522
vt 0.690039 0.904389
vt 0.688428 0.942842
vt 0.732638 0.900626
vt 0.736322 0.939475
vt 0.774164 0.896305
vt 0.774993 0.934632
vt 0.816712 0.909366
vt 0.813530 0.939211
vt 0.867068 0.912599
vt 0.866105 0.939434
vt 0.821258 0.870583
vt 0.869481 0.876369
vt 0.916154 0.870165
vt 0.873797 0.831913
vt 0.917832 0.828923
vt 0.963254 0.828392
vt 0.961778 0.868453
vt 0.920579 0.784685
vt 0.964470 0.784372
vt 0.921546 0.738437
vt 0.964448 0.738202
vt 0.922149 0.691903
vt 0.964296 0.691976
vt 0.922529 0.645034
vt 0.964562 0.644948
vt 0.922897 0.598490
vt 0.964643 0.598941
vt 0.881034 0.594060
vt 0.884762 0.553275
vt 0.880809 0.645313
vt 0.839009 0.647317
vt 0.840219 0.601415
vt 0.879814 0.692159
vt 0.836959 0.692335
vt 0.793147 0.690262
vt 0.795556 0.644480
vt 0.878937 0.738453
vt 0.836747 0.737518
vt 0.793803 0.735720
vt 0.748513 0.736210
vt 0.751615 0.690290
vt 0.837578 0.784939
vt 0.791608 0.776267
vt 0.741593 0.775447
vt 0.692986 0.776196
vt 0.703856 0.733374
vt 0.781607 0.813081
vt 0.732318 0.815056
vt 0.684432 0.820463
vt 0.635717 0.822016
vt 0.643394 0.775348
vt 0.731035 0.858195
vt 0.688157 0.862613
vt 0.774680 0.853109
vt 0.831304 0.828955
vt 0.878061 0.785182
vt 0.604028 0.773971
vt 0.622171 0.728824
vt 0.664245 0.729905
vt 0.624786 0.688735
vt 0.667007 0.689213
vt 0.709215 0.690514
vt 0.667174 0.648140
vt 0.709774 0.648148
vt 0.753015 0.645778
vt 0.710826 0.606231
vt 0.754406 0.602597
vt 0.797707 0.600135
vt 0.755003 0.561423
vt 0.800336 0.558648
vt 0.841268 0.559831
vt 0.804339 0.523546
vt 0.842019 0.524981
vt 0.885641 0.524858
vt 0.752088 0.524106
vt 0.711678 0.565792
vt 0.712398 0.529664
vt 0.670206 0.565296
vt 0.670950 0.528422
vt 0.629083 0.566833
vt 0.629806 0.527823
vt 0.668957 0.605886
vt 0.627848 0.607618
vt 0.625291 0.648736
vn -0.410515 0.908660 -0.076256
vn -0.387984 0.915726 -0.104469
vn -0.177712 0.976363 -0.123020
vn -0.142616 0.963187 -0.227886
vn 0.093898 0.981511 -0.166792
vn 0.082173 0.969607 -0.230457
vn 0.106896 0.987958 -0.111855
vn 0.122115 0.990102 -0.069185
vn 0.130902 0.991391 0.002996
vn 0.089312 0.989726 -0.111654
vn 0.059718 0.986511 -0.152415
vn 0.124740 0.991993 -0.019753
vn -0.030561 0.938511 -0.343893
vn 0.014573 0.936365 -0.350724
vn 0.025102 0.968129 -0.249190
vn 0.005068 0.970181 -0.242328
vn 0.027995 0.998170 -0.053599
vn 0.033736 0.997456 -0.062796
vn -0.013130 0.992723 0.119703
vn -0.032567 0.995101 0.093343
vn -0.096056 0.979515 0.176985
vn -0.167742 0.977733 0.126097
vn -0.203719 0.967998 0.146554
vn -0.370434 0.924159 0.093322
vn -0.297090 0.939010 0.173201
vn -0.496628 0.846216 0.193078
vn -0.249154 0.961160 0.118718
vn -0.424206 0.890390 0.165093
vn -0.189555 0.981849 -0.006373
vn -0.335730 0.941056 -0.041225
vn 0.016661 0.995806 0.089956
vn -0.014367 0.998375 0.055150
vn -0.006718 0.990949 -0.134068
vn 0.125080 0.986896 0.101937
vn 0.125264 0.989031 -0.078275
vn 0.101242 0.946804 -0.305471
vn 0.032952 0.945896 -0.322793
vn 0.123249 0.991713 -0.036270
vn 0.095180 0.982226 -0.161783
vn 0.009121 0.999922 -0.008521
vn 0.005179 0.998899 -0.046631
vn -0.032926 0.999454 -0.002881
vn -0.032664 0.999300 -0.018252
vn 0.050380 0.996401 -0.068170
vn 0.081790 0.986475 -0.142048
vn 0.098358 0.985032 -0.141556
vn 0.107816 0.958217 -0.264946
vn 0.042710 0.997973 0.047177
vn 0.091050 0.994278 0.055872
vn 0.111899 0.991518 0.066108
vn 0.092110 0.976045 0.197108
vn 0.073327 0.981391 0.177466
vn 0.069657 0.986336 0.149294
vn 0.127994 0.989960 0.059970
vn 0.014474 0.990920 0.133671
vn -0.012052 0.994355 0.105423
vn -0.030533 0.998857 0.036773
vn -0.060951 0.997865 0.023458
vn -0.044396 0.998882 -0.016259
vn -0.070949 0.997368 -0.014955
vn -0.038863 0.997270 -0.062780
vn -0.052240 0.996912 -0.058624
vn -0.015071 0.987439 -0.157283
vn 0.007452 0.991678 -0.128525
vn -0.045133 0.983413 -0.175673
vn -0.048205 0.983225 -0.175910
vn -0.017179 0.998158 -0.058182
vn -0.005811 0.999329 -0.036161
vn -0.026153 0.991199 -0.129772
vn 0.005798 0.999962 -0.006488
vn 0.037463 0.998754 0.032965
vn 0.047110 0.995233 0.085388
vn 0.004385 0.999886 -0.014468
vn 0.038523 0.996957 0.067769
vn 0.093454 0.989575 0.109582
vn 0.106444 0.980862 0.163035
vn 0.105521 0.972497 0.207640
vn 0.067496 0.988462 0.135599
vn 0.128785 0.971950 0.196793
vn 0.138087 0.970996 0.195192
vn 0.090733 0.981876 0.166394
vn 0.029285 0.994256 0.102945
vn 0.085475 0.974852 0.205808
vn 0.090968 0.988564 0.120275
vn 0.029894 0.999164 0.027895
vn 0.032414 0.998969 0.031782
vn 0.101340 0.991393 0.082888
vn 0.067365 0.995283 0.069808
vn 0.007365 0.999893 -0.012659
vn 0.103361 0.993417 0.049378
vn 0.008753 0.999884 0.012438
vn 0.101439 0.980368 0.169084
vn 0.074994 0.981450 0.176442
vn 0.022732 0.993331 0.113036
vn 0.017939 0.985940 0.166137
vn 0.067537 0.982049 0.176120
vn 0.018558 0.973520 0.227848
vn 0.073218 0.972998 0.218891
vn 0.084633 0.979654 0.181979
vn 0.040207 0.993067 0.110457
vn 0.036741 0.997146 0.065952
vn 0.021335 0.999592 0.018973
vn 0.009891 0.997320 -0.072489
vn -0.011851 0.994815 -0.101011
vn -0.010365 0.992328 -0.123202
vn -0.000701 0.964087 -0.265587
vn 0.016087 0.974091 -0.225585
vn -0.040671 0.979904 -0.195280
vn 0.048573 0.966866 -0.250620
vn -0.051287 0.987551 -0.148706
vn -0.031026 0.996960 -0.071468
vn 0.025664 0.933783 -0.356918
vn 0.017876 0.959005 -0.282823
vn 0.033116 0.906563 -0.420770
vn -0.005745 0.958696 -0.284374
vn -0.020942 0.916022 -0.400581
vn 0.005209 0.965970 -0.258603
vn -0.000363 0.931846 -0.362854
vn 0.015365 0.997847 -0.063756
vn 0.013172 0.998706 -0.049124
vn 0.020770 0.990219 0.137965
s 1
g FloorLP:Group22561
usemtl initialShadingGroup
f 1/1/1 4/2/2 5/3/3 6/4/4
f 2/5/5 7/6/6 8/7/7 9/8/8
f 3/9/9 10/10/10 11/11/11 12/12/12
f 13/13/13 14/14/14 15/15/15 16/16/16
f 16/16/16 15/15/15 17/17/17 18/18/18
f 18/18/18 17/17/17 19/19/19 20/20/20
f 20/20/20 19/19/19 21/21/21 22/22/22
f 22/22/22 21/21/21 23/23/23 24/24/24
f 24/24/24 23/23/23 25/25/25 26/26/26
f 26/26/26 25/25/25 27/27/27 28/28/28
f 28/28/28 27/27/27 29/29/29 30/30/30
f 30/30/30 29/29/29 5/3/3 4/2/2
f 29/29/29 27/27/27 31/31/31 32/32/32
f 29/29/29 32/32/32 33/33/33 5/3/3
f 33/33/33 32/32/32 34/34/34 35/35/35
f 33/33/33 35/35/35 36/36/36 37/37/37
f 33/33/33 37/37/37 6/4/4 5/3/3
f 36/36/36 35/35/35 38/38/38 39/39/39
f 39/39/39 38/38/38 40/40/40 41/41/41
f 41/41/41 40/40/40 42/42/42 43/43/43
f 43/43/43 42/42/42 44/44/44 45/45/45
f 45/45/45 44/44/44 46/46/46 47/47/47
f 47/47/47 46/46/46 8/7/7 7/6/6
f 46/46/46 44/44/44 48/48/48 49/49/49
f 46/46/46 49/49/49 50/50/50 8/7/7
f 50/50/50 49/49/49 51/51/51 52/52/52
f 50/50/50 52/52/52 53/53/53 54/54/54
f 50/50/50 54/54/54 9/8/8 8/7/7
f 53/53/53 52/52/52 55/55/55 56/56/56
f 56/56/56 55/55/55 57/57/57 58/58/58
f 58/58/58 57/57/57 59/59/59 60/60/60
f 60/60/60 59/59/59 61/61/61 62/62/62
f 62/62/62 61/61/61 63/63/63 64/64/64
f 64/64/64 63/63/63 11/11/11 10/10/10
f 63/63/63 65/65/65 66/66/66 11/11/11
f 63/63/63 61/61/61 67/67/67 65/65/65
f 67/67/67 68/68/68 69/69/69 65/65/65
f 67/67/67 61/61/61 59/59/59 70/70/70
f 67/67/67 70/70/70 71/71/71 68/68/68
f 71/71/71 72/72/72 73/73/73 68/68/68
f 71/71/71 70/70/70 74/74/74 75/75/75
f 71/71/71 75/75/75 76/76/76 72/72/72
f 76/76/76 77/77/77 78/78/78 72/72/72
f 76/76/76 75/75/75 79/79/79 80/80/80
f 76/76/76 80/80/80 81/81/81 77/77/77
f 81/81/81 82/82/82 83/83/83 77/77/77
f 81/81/81 80/80/80 84/84/84 85/85/85
f 81/81/81 85/85/85 86/86/86 82/82/82
f 86/86/86 87/87/87 88/88/88 82/82/82
f 86/86/86 85/85/85 89/89/89 90/90/90
f 86/86/86 90/90/90 34/34/34 87/87/87
f 90/90/90 89/89/89 40/40/40 38/38/38
f 90/90/90 38/38/38 35/35/35 34/34/34
f 89/89/89 85/85/85 84/84/84 91/91/91
f 89/89/89 91/91/91 42/42/42 40/40/40
f 91/91/91 84/84/84 92/92/92 48/48/48
f 91/91/91 48/48/48 44/44/44 42/42/42
f 92/92/92 84/84/84 80/80/80 79/79/79
f 92/92/92 79/79/79 93/93/93 51/51/51
f 92/92/92 51/51/51 49/49/49 48/48/48
f 93/93/93 79/79/79 75/75/75 74/74/74
f 93/93/93 74/74/74 57/57/57 55/55/55
f 93/93/93 55/55/55 52/52/52 51/51/51
f 88/88/88 94/94/94 95/95/95 96/96/96
f 88/88/88 96/96/96 83/83/83 82/82/82
f 88/88/88 87/87/87 31/31/31 94/94/94
f 96/96/96 95/95/95 97/97/97 98/98/98
f 96/96/96 98/98/98 99/99/99 83/83/83
f 99/99/99 98/98/98 100/100/100 101/101/101
f 99/99/99 101/101/101 102/102/102 78/78/78
f 99/99/99 78/78/78 77/77/77 83/83/83
f 102/102/102 101/101/101 103/103/103 104/104/104
f 102/102/102 104/104/104 105/105/105 73/73/73
f 102/102/102 73/73/73 72/72/72 78/78/78
f 105/105/105 104/104/104 106/106/106 107/107/107
f 105/105/105 107/107/107 108/108/108 69/69/69
f 105/105/105 69/69/69 68/68/68 73/73/73
f 108/108/108 107/107/107 109/109/109 110/110/110
f 108/108/108 110/110/110 111/111/111 66/66/66
f 108/108/108 66/66/66 65/65/65 69/69/69
f 111/111/111 12/12/12 11/11/11 66/66/66
f 109/109/109 107/107/107 106/106/106 112/112/112
f 112/112/112 106/106/106 113/113/113 114/114/114
f 114/114/114 113/113/113 115/115/115 116/116/116
f 116/116/116 115/115/115 117/117/117 118/118/118
f 118/118/118 117/117/117 15/15/15 14/14/14
f 117/117/117 115/115/115 119/119/119 120/120/120
f 117/117/117 120/120/120 17/17/17 15/15/15
f 120/120/120 119/119/119 100/100/100 121/121/121
f 120/120/120 121/121/121 19/19/19 17/17/17
f 121/121/121 100/100/100 98/98/98 97/97/97
f 121/121/121 97/97/97 21/21/21 19/19/19
f 119/119/119 115/115/115 113/113/113 103/103/103
f 119/119/119 103/103/103 101/101/101 100/100/100
f 113/113/113 106/106/106 104/104/104 103/103/103
f 97/97/97 95/95/95 23/23/23 21/21/21
f 95/95/95 94/94/94 25/25/25 23/23/23
f 94/94/94 31/31/31 27/27/27 25/25/25
f 87/87/87 34/34/34 32/32/32 31/31/31
f 74/74/74 70/70/70 59/59/59 57/57/57
